<mxfile host="Electron" modified="2024-03-08T14:00:49.282Z" agent="Mozilla/5.0 (X11; Linux x86_64) AppleWebKit/537.36 (KHTML, like Gecko) draw.io/23.1.5 Chrome/120.0.6099.109 Electron/28.1.0 Safari/537.36" etag="iEvzoP7fEch1b31M_JiH" version="23.1.5" type="device">
  <diagram name="PÃ¡gina-1" id="j940F4hj2QMUl-P_P36t">
    <mxGraphModel dx="733" dy="446" grid="1" gridSize="10" guides="1" tooltips="1" connect="1" arrows="1" fold="1" page="1" pageScale="1" pageWidth="827" pageHeight="1169" math="0" shadow="0">
      <root>
        <mxCell id="0" />
        <mxCell id="1" parent="0" />
        <mxCell id="cSCZ9OqrcPkiXdd_0Jnn-12" value="" style="edgeStyle=orthogonalEdgeStyle;rounded=0;orthogonalLoop=1;jettySize=auto;html=1;" parent="1" source="cSCZ9OqrcPkiXdd_0Jnn-1" target="cSCZ9OqrcPkiXdd_0Jnn-11" edge="1">
          <mxGeometry relative="1" as="geometry" />
        </mxCell>
        <mxCell id="cSCZ9OqrcPkiXdd_0Jnn-1" value="API&lt;br&gt;[extensao do navegador]" style="rounded=1;whiteSpace=wrap;html=1;" parent="1" vertex="1">
          <mxGeometry x="330" y="360" width="120" height="60" as="geometry" />
        </mxCell>
        <mxCell id="cSCZ9OqrcPkiXdd_0Jnn-9" style="edgeStyle=orthogonalEdgeStyle;rounded=0;orthogonalLoop=1;jettySize=auto;html=1;entryX=0.5;entryY=0;entryDx=0;entryDy=0;" parent="1" source="cSCZ9OqrcPkiXdd_0Jnn-2" target="cSCZ9OqrcPkiXdd_0Jnn-7" edge="1">
          <mxGeometry relative="1" as="geometry" />
        </mxCell>
        <mxCell id="cSCZ9OqrcPkiXdd_0Jnn-2" value="User&lt;div&gt;&lt;br/&gt;&lt;/div&gt;" style="shape=umlActor;verticalLabelPosition=bottom;verticalAlign=top;html=1;outlineConnect=0;" parent="1" vertex="1">
          <mxGeometry x="160" y="110" width="50" height="110" as="geometry" />
        </mxCell>
        <mxCell id="cSCZ9OqrcPkiXdd_0Jnn-10" value="" style="edgeStyle=orthogonalEdgeStyle;rounded=0;orthogonalLoop=1;jettySize=auto;html=1;" parent="1" source="cSCZ9OqrcPkiXdd_0Jnn-7" target="cSCZ9OqrcPkiXdd_0Jnn-1" edge="1">
          <mxGeometry relative="1" as="geometry">
            <Array as="points">
              <mxPoint x="270" y="390" />
              <mxPoint x="270" y="390" />
            </Array>
          </mxGeometry>
        </mxCell>
        <mxCell id="cSCZ9OqrcPkiXdd_0Jnn-7" value="Sidebar do navegador" style="rounded=1;whiteSpace=wrap;html=1;" parent="1" vertex="1">
          <mxGeometry x="125" y="360" width="120" height="60" as="geometry" />
        </mxCell>
        <mxCell id="DkIEje5TWdKiEioPmd8U-2" style="edgeStyle=orthogonalEdgeStyle;rounded=0;orthogonalLoop=1;jettySize=auto;html=1;entryX=0;entryY=0.5;entryDx=0;entryDy=0;" edge="1" parent="1" source="cSCZ9OqrcPkiXdd_0Jnn-11" target="DkIEje5TWdKiEioPmd8U-1">
          <mxGeometry relative="1" as="geometry" />
        </mxCell>
        <mxCell id="DkIEje5TWdKiEioPmd8U-7" style="edgeStyle=orthogonalEdgeStyle;rounded=0;orthogonalLoop=1;jettySize=auto;html=1;entryX=0;entryY=0.5;entryDx=0;entryDy=0;" edge="1" parent="1" source="cSCZ9OqrcPkiXdd_0Jnn-11" target="DkIEje5TWdKiEioPmd8U-3">
          <mxGeometry relative="1" as="geometry" />
        </mxCell>
        <mxCell id="DkIEje5TWdKiEioPmd8U-8" style="edgeStyle=orthogonalEdgeStyle;rounded=0;orthogonalLoop=1;jettySize=auto;html=1;entryX=0;entryY=0.5;entryDx=0;entryDy=0;" edge="1" parent="1" source="cSCZ9OqrcPkiXdd_0Jnn-11" target="DkIEje5TWdKiEioPmd8U-4">
          <mxGeometry relative="1" as="geometry" />
        </mxCell>
        <mxCell id="DkIEje5TWdKiEioPmd8U-9" style="edgeStyle=orthogonalEdgeStyle;rounded=0;orthogonalLoop=1;jettySize=auto;html=1;entryX=0;entryY=0.5;entryDx=0;entryDy=0;" edge="1" parent="1" source="cSCZ9OqrcPkiXdd_0Jnn-11" target="DkIEje5TWdKiEioPmd8U-5">
          <mxGeometry relative="1" as="geometry" />
        </mxCell>
        <mxCell id="cSCZ9OqrcPkiXdd_0Jnn-11" value="Aplication" style="rounded=1;whiteSpace=wrap;html=1;" parent="1" vertex="1">
          <mxGeometry x="550" y="360" width="120" height="60" as="geometry" />
        </mxCell>
        <mxCell id="cSCZ9OqrcPkiXdd_0Jnn-27" value="Services[Apps]" style="swimlane;" parent="1" vertex="1">
          <mxGeometry x="770" y="200" width="200" height="350" as="geometry" />
        </mxCell>
        <mxCell id="DkIEje5TWdKiEioPmd8U-1" value="Calculadora" style="rounded=1;whiteSpace=wrap;html=1;" vertex="1" parent="cSCZ9OqrcPkiXdd_0Jnn-27">
          <mxGeometry x="40" y="50" width="120" height="60" as="geometry" />
        </mxCell>
        <mxCell id="DkIEje5TWdKiEioPmd8U-3" value="Tradutor" style="rounded=1;whiteSpace=wrap;html=1;" vertex="1" parent="cSCZ9OqrcPkiXdd_0Jnn-27">
          <mxGeometry x="40" y="120" width="120" height="60" as="geometry" />
        </mxCell>
        <mxCell id="DkIEje5TWdKiEioPmd8U-4" value="Conversor" style="rounded=1;whiteSpace=wrap;html=1;" vertex="1" parent="cSCZ9OqrcPkiXdd_0Jnn-27">
          <mxGeometry x="40" y="190" width="120" height="60" as="geometry" />
        </mxCell>
        <mxCell id="DkIEje5TWdKiEioPmd8U-5" value="Bloco de Notas" style="rounded=1;whiteSpace=wrap;html=1;" vertex="1" parent="cSCZ9OqrcPkiXdd_0Jnn-27">
          <mxGeometry x="40" y="260" width="120" height="60" as="geometry" />
        </mxCell>
        <mxCell id="DkIEje5TWdKiEioPmd8U-10" value="API&lt;br&gt;[formula_calc.php]" style="rounded=1;whiteSpace=wrap;html=1;" vertex="1" parent="1">
          <mxGeometry x="1150" y="250" width="120" height="60" as="geometry" />
        </mxCell>
        <mxCell id="DkIEje5TWdKiEioPmd8U-11" value="Use" style="endArrow=open;endSize=12;dashed=1;html=1;rounded=0;exitX=1;exitY=0.25;exitDx=0;exitDy=0;entryX=0;entryY=0.25;entryDx=0;entryDy=0;" edge="1" parent="1" source="DkIEje5TWdKiEioPmd8U-1" target="DkIEje5TWdKiEioPmd8U-10">
          <mxGeometry width="160" relative="1" as="geometry">
            <mxPoint x="1000" y="410" as="sourcePoint" />
            <mxPoint x="1170" y="360" as="targetPoint" />
          </mxGeometry>
        </mxCell>
        <mxCell id="DkIEje5TWdKiEioPmd8U-12" value="Return_resultado" style="html=1;verticalAlign=bottom;endArrow=open;dashed=1;endSize=8;curved=0;rounded=0;exitX=0;exitY=0.75;exitDx=0;exitDy=0;entryX=1;entryY=0.75;entryDx=0;entryDy=0;" edge="1" parent="1" source="DkIEje5TWdKiEioPmd8U-10" target="DkIEje5TWdKiEioPmd8U-1">
          <mxGeometry relative="1" as="geometry">
            <mxPoint x="1070" y="230" as="sourcePoint" />
            <mxPoint x="990" y="230" as="targetPoint" />
            <mxPoint as="offset" />
          </mxGeometry>
        </mxCell>
        <mxCell id="DkIEje5TWdKiEioPmd8U-14" value="API&lt;br&gt;[formula_conv.php]" style="rounded=1;whiteSpace=wrap;html=1;" vertex="1" parent="1">
          <mxGeometry x="1150" y="390" width="120" height="60" as="geometry" />
        </mxCell>
        <mxCell id="DkIEje5TWdKiEioPmd8U-15" value="Use" style="endArrow=open;endSize=12;dashed=1;html=1;rounded=0;exitX=1;exitY=0.25;exitDx=0;exitDy=0;entryX=0;entryY=0.25;entryDx=0;entryDy=0;" edge="1" parent="1" source="DkIEje5TWdKiEioPmd8U-4" target="DkIEje5TWdKiEioPmd8U-14">
          <mxGeometry width="160" relative="1" as="geometry">
            <mxPoint x="930" y="410" as="sourcePoint" />
            <mxPoint x="1150" y="410" as="targetPoint" />
          </mxGeometry>
        </mxCell>
        <mxCell id="DkIEje5TWdKiEioPmd8U-16" value="Return_conversao" style="html=1;verticalAlign=bottom;endArrow=open;dashed=1;endSize=8;curved=0;rounded=0;exitX=0;exitY=0.75;exitDx=0;exitDy=0;entryX=1;entryY=0.75;entryDx=0;entryDy=0;" edge="1" parent="1" source="DkIEje5TWdKiEioPmd8U-14" target="DkIEje5TWdKiEioPmd8U-4">
          <mxGeometry relative="1" as="geometry">
            <mxPoint x="1130" y="430" as="sourcePoint" />
            <mxPoint x="930" y="430" as="targetPoint" />
            <mxPoint as="offset" />
          </mxGeometry>
        </mxCell>
        <mxCell id="DkIEje5TWdKiEioPmd8U-17" value="API&lt;br&gt;[Google Translate]" style="rounded=1;whiteSpace=wrap;html=1;" vertex="1" parent="1">
          <mxGeometry x="1270" y="320" width="120" height="60" as="geometry" />
        </mxCell>
        <mxCell id="DkIEje5TWdKiEioPmd8U-18" value="Use" style="endArrow=open;endSize=12;dashed=1;html=1;rounded=0;exitX=1;exitY=0.5;exitDx=0;exitDy=0;entryX=0;entryY=0.5;entryDx=0;entryDy=0;" edge="1" parent="1" source="DkIEje5TWdKiEioPmd8U-3" target="DkIEje5TWdKiEioPmd8U-17">
          <mxGeometry width="160" relative="1" as="geometry">
            <mxPoint x="940" y="350" as="sourcePoint" />
            <mxPoint x="1160" y="350" as="targetPoint" />
          </mxGeometry>
        </mxCell>
      </root>
    </mxGraphModel>
  </diagram>
</mxfile>
